<?xml version="1.0" encoding="UTF-8"?>
<svg id="Layer_1" xmlns="http://www.w3.org/2000/svg" version="1.1" viewBox="0 0 23.54 25.96">
  <!-- Generator: Adobe Illustrator 29.8.1, SVG Export Plug-In . SVG Version: 2.1.1 Build 2)  -->
  <defs>
    <style>
      .st0 {
        fill: #10182b;
        opacity: .8;
      }
    </style>
  </defs>
  <path class="st0" d="M12.93,24.41l.6,1.01c.53-.32.97-.77,1.27-1.31l-1.03-.57-1.03-.57c-.1.17-.24.32-.41.42l.6,1.01ZM11.77,24.73v1.17c.62,0,1.23-.17,1.76-.48l-.6-1.01-.6-1.01c-.17.1-.37.15-.56.15v1.17ZM10.61,24.41l-.6,1.01c.53.32,1.14.48,1.76.48v-2.35c-.2,0-.39-.05-.56-.15l-.6,1.01ZM9.77,23.55l-1.03.57c.3.54.74,1,1.27,1.31l.6-1.01.6-1.01c-.17-.1-.31-.25-.41-.42l-1.03.57ZM1.17,18.84q.65.98.65.98s0,0,0,0c0,0,0,0,0,0,0,0,0,0,0,0,0,0,.01,0,.02-.01.01-.01.03-.02.05-.04.04-.03.1-.07.16-.13.13-.11.3-.26.5-.47.4-.42.9-1.05,1.39-1.96.99-1.81,1.91-4.66,1.91-8.95h-2.35c0,3.95-.84,6.4-1.62,7.83-.39.72-.77,1.19-1.04,1.47-.13.14-.24.23-.3.28-.03.03-.05.04-.06.05,0,0,0,0,0,0,0,0,0,0,0,0,0,0,0,0,0,0,0,0,0,0,0,0h0s0,0,.65.98ZM22.37,18.84v-1.17H1.17v2.35h21.19v-1.17ZM18.84,8.24h-1.17c0,4.29.92,7.14,1.91,8.95.49.9,1,1.54,1.39,1.96.2.21.37.37.5.47.07.05.12.1.16.13.02.02.04.03.05.04,0,0,.01,0,.02.01,0,0,0,0,0,0,0,0,0,0,0,0,0,0,0,0,0,0s0,0,.65-.98.65-.98.65-.98h0s0,0,0,0c0,0,0,0,0,0,0,0,0,0,0,0,0,0,0,0,0,0,0,0-.03-.02-.06-.05-.06-.05-.17-.14-.3-.28-.26-.28-.65-.75-1.04-1.47-.78-1.43-1.62-3.88-1.62-7.83h-1.17ZM16.77,3.24l-.83.83c1.1,1.1,1.72,2.6,1.72,4.16h2.35c0-2.19-.87-4.28-2.41-5.83l-.83.83ZM11.77,1.17v1.17c1.56,0,3.06.62,4.17,1.73l.83-.83.83-.83c-1.55-1.55-3.64-2.41-5.83-2.41v1.17ZM6.78,3.24l.83.83c1.1-1.1,2.6-1.73,4.17-1.73V0c-2.19,0-4.28.87-5.83,2.41l.83.83ZM4.71,8.24h1.17c0-1.56.62-3.06,1.72-4.16l-.83-.83-.83-.83c-1.54,1.54-2.41,3.64-2.41,5.83h1.17ZM14.8,24.11c.31-.57.1-1.28-.46-1.59s-1.28-.11-1.59.46l2.06,1.13ZM10.8,22.98c-.31-.57-1.03-.78-1.59-.46s-.78,1.03-.46,1.59l2.06-1.13ZM1.17,18.84l-.65-.98c-.43.29-.62.82-.47,1.32.15.5.61.83,1.12.83v-1.17ZM22.37,18.84v1.17c.52,0,.97-.34,1.12-.83.15-.49-.04-1.03-.47-1.32l-.65.98ZM18.84,8.24h1.17-1.17ZM11.77,1.17V0v1.17ZM4.71,8.24h-1.17,1.17Z"/>
</svg>