<?xml version="1.0" encoding="UTF-8"?>
<svg id="Layer_1" xmlns="http://www.w3.org/2000/svg" version="1.1" viewBox="0 0 146.45 135.6">
  <!-- Generator: Adobe Illustrator 29.8.1, SVG Export Plug-In . SVG Version: 2.1.1 Build 2)  -->
  <defs>
    <style>
      .st0 {
        fill: #fbd10c;
      }

      .st1 {
        fill: #fff;
      }

      .st2 {
        fill: #263d8e;
      }
    </style>
  </defs>
  <path class="st2" d="M135.46,110.72c-.94,6.37-4.09,11.87-9.13,15.95-5.34,4.31-11.76,6.19-18.6,5.47-.39-.04-.75-.09-1.11-.14-5.51-.81-10.35-3.25-14.2-7.19-1.93,1.4-3.96,2.64-6.13,3.7-4.74,2.34-9.91,3.94-15.41,4.75-4.98.74-10.09.96-15.17.64-1.43-.09-2.86-.22-4.28-.38v.31s-48.9.83-48.9.83L.63,4.64l48.55-.84v.14c1.55-.18,3.07-.33,4.58-.41,8.51-.45,16.17.52,22.79,2.87,7.22,2.59,13.21,6.57,17.81,11.85.3.35.6.68.87,1.05l1.97-19.31,49.01,5.2-10.47,102.37c-.02.68-.08,1.37-.14,2.03-.04.39-.09.75-.14,1.11Z"/>
  <g>
    <path class="st0" d="M90.15,96.82c-.95,3.98-2.57,7.33-4.87,10.04-2.3,2.71-5.06,4.86-8.25,6.44-3.2,1.58-6.71,2.65-10.52,3.22-3.82.57-7.68.73-11.61.48-3.92-.25-7.76-.85-11.51-1.81-3.75-.95-7.16-2.18-10.23-3.69l.1,5.67-16.17.28-1.4-96.49,15.9-.28.08,4.7c7.78-3.18,14.82-4.94,21.13-5.28,6.31-.34,11.73.3,16.28,1.93,4.54,1.63,8.18,4.01,10.91,7.14,2.73,3.13,4.45,6.54,5.16,10.21.81,4.5,0,9.06-2.46,13.66-2.46,4.61-6.42,8.43-11.9,11.48,3.43,1.41,6.53,3.23,9.29,5.44,2.76,2.21,5.01,4.73,6.77,7.56,1.75,2.83,2.94,5.87,3.55,9.13.61,3.26.53,6.65-.24,10.17ZM31.95,41.69l.3,17c3.51.22,7.51.08,12.02-.42,4.51-.49,8.73-1.4,12.67-2.71,3.94-1.31,7.14-3.05,9.59-5.21,2.45-2.16,3.37-4.85,2.76-8.07-.4-2.02-1.59-3.71-3.54-5.06-1.96-1.35-4.58-2.15-7.85-2.42-3.28-.26-7.12.12-11.53,1.17-4.41,1.04-9.21,2.95-14.42,5.71ZM32.85,93.81c1.87,1.81,4.18,3.32,6.92,4.51,2.74,1.2,5.61,2.09,8.62,2.69,3.01.59,6.05.86,9.14.81,3.09-.05,5.87-.4,8.35-1.04,2.48-.64,4.56-1.64,6.24-3.01,1.68-1.36,2.64-3.02,2.89-4.96.41-3.14-.01-5.85-1.25-8.14-1.24-2.28-2.98-4.19-5.22-5.72-2.24-1.53-4.89-2.73-7.94-3.59-3.06-.87-6.23-1.46-9.5-1.77-3.28-.31-6.53-.39-9.75-.25-3.23.15-6.17.52-8.83,1.12l.34,19.35Z"/>
    <path class="st1" d="M118.69,89.59l-16.5-1.75,7.12-69.59,16.5,1.75-7.12,69.59ZM116.94,107.34c-.26,2.47-1.36,4.49-3.28,6.05-1.93,1.56-4.13,2.2-6.6,1.94-2.47-.26-4.49-1.36-6.05-3.28-1.56-1.93-2.2-4.13-1.94-6.6.26-2.47,1.36-4.49,3.28-6.05,1.92-1.56,4.13-2.2,6.6-1.94,2.47.26,4.49,1.36,6.05,3.28,1.55,1.93,2.2,4.13,1.94,6.6Z"/>
  </g>
</svg>